<svg version="1.1" id="Calque_1" xmlns="http://www.w3.org/2000/svg" xmlns:xlink="http://www.w3.org/1999/xlink" x="0px" y="0px"
         width="24px" height="24px" viewBox="0 0 24 24" enable-background="new 0 0 24 24" xml:space="preserve">
<g>
        <defs>
                <rect id="SVGID_1_" x="7.146" y="2.777" width="9.707" height="18.447"/>
        </defs>
        <clipPath id="SVGID_2_">
                <use xlink:href="#SVGID_1_"  overflow="visible"/>
        </clipPath>
        <g clip-path="url(#SVGID_2_)">
                <path fill="#FFFFFF" d="M10.275,10.663C9.63,9.991,9.09,9.33,8.831,8.891C7.614,6.829,7.614,5.122,7.615,2.96V2.777h0.75V2.96
                        C8.364,5.087,8.364,6.624,9.478,8.51c0.227,0.385,0.74,1.011,1.338,1.633L10.275,10.663z"/>
        </g>
        <g clip-path="url(#SVGID_2_)">
                <path fill="#FFFFFF" d="M15.613,21.22c-0.006-0.643,0.002-1.213,0.01-1.754c0.01-0.754,0.021-1.455-0.01-2.227
                        c-0.049-1.234-0.771-2.459-2.276-3.857l0.509-0.549c1.66,1.541,2.459,2.932,2.518,4.377c0.031,0.785,0.02,1.498,0.01,2.268
                        c-0.008,0.535-0.016,1.1-0.01,1.736L15.613,21.22z"/>
        </g>
        <g clip-path="url(#SVGID_2_)">
                <path fill="#FFFFFF" d="M8.854,21.224l-1.688-0.016c0.006-0.635-0.002-1.197-0.01-1.73c-0.011-0.775-0.021-1.494,0.011-2.287
                        c0.096-2.414,2.101-4.328,4.049-5.879c1.364-1.088,2.562-2.464,2.902-3.04c1.047-1.777,1.047-3.185,1.047-5.315V2.777h1.688v0.178
                        c0,2.235,0.002,4-1.281,6.174c-0.477,0.807-1.844,2.336-3.304,3.502c-1.649,1.314-3.345,2.891-3.414,4.625
                        c-0.03,0.762-0.021,1.451-0.01,2.195C8.853,19.999,8.861,20.573,8.854,21.224z"/>
        </g>
</g>
</svg>
