<svg version="1.1" id="Calque_1" xmlns="http://www.w3.org/2000/svg" xmlns:xlink="http://www.w3.org/1999/xlink" x="0px" y="0px"
     width="24px" height="24px" viewBox="0 0 283.46 425.2" enable-background="new 0 0 283.46 425.2" xml:space="preserve">
<g>
	<path fill="none" stroke="#ED2224" stroke-width="30" stroke-linecap="round" stroke-miterlimit="10" d="M172.004,182.941"/>
</g>
    <g>
	<g>
		<path fill="#FFFFFF" d="M262.835,387.5h-44c0-33.933-12.961-73.458-31.519-96.118c-13.415-16.381-31.609-32.94-50.871-50.472
			c-28.865-26.271-61.582-56.048-86.485-93.063C29.489,117.418,20.166,69.316,20.166,37.5h44c0,25.517,7.816,64.254,22.302,85.786
			c21.939,32.61,51.25,59.286,79.594,85.084c20.488,18.646,39.839,36.26,55.296,55.133
			C251.973,300.886,262.835,353.663,262.835,387.5z"/>
	</g>
        <g>
		<path fill="#FFFFFF" d="M61.835,387.5h-30c0-17.634,2.622-78.369,36.356-119.562c1.896-2.314,3.931-4.703,6.051-7.102
			l22.479,19.867c-1.873,2.119-3.664,4.22-5.322,6.244C69.602,313.564,61.835,356.342,61.835,387.5z"/>
	</g>
        <g>
		<path fill="#FFFFFF" d="M203.856,175.688l-22.635-19.69c8.53-9.804,15.809-19.226,22.252-28.804
			c11.791-17.527,18.554-50.219,18.554-89.693h30c0,32.512-4.105,77.369-23.663,106.439
			C221.223,154.555,213.206,164.939,203.856,175.688z"/>
	</g>
</g>
</svg>
